<?xml version="1.0" standalone="no"?>
<!DOCTYPE svg PUBLIC "-//W3C//DTD SVG 1.1//EN" "http://www.w3.org/Graphics/SVG/1.1/DTD/svg11.dtd" >
<svg xmlns="http://www.w3.org/2000/svg" xmlns:xlink="http://www.w3.org/1999/xlink" version="1.1">
<metadata>
Created by FontForge 20160407 at Thu May 26 12:07:15 2016
 By Jimmy Wärting
Mojave OF Light is a font by 100Degree Type, designed by Gumpita Rahayu in 2013.
</metadata>
<defs>
<font id="Mohave-Bold" horiz-adv-x="495" >
  <font-face 
    font-family="Mohave"
    font-weight="700"
    font-stretch="normal"
    units-per-em="1000"
    panose-1="0 0 0 0 0 0 0 0 0 0"
    ascent="901"
    descent="-99"
    x-height="817"
    cap-height="817"
    bbox="-46 -251 837 1012"
    underline-thickness="50"
    underline-position="-99"
    stemh="58"
    stemv="58"
    unicode-range="U+0020-2212"
  />
<missing-glyph horiz-adv-x="393" 
d="M346 801v-800h-300v800h300zM296 751h-200v-700h200v700z" />
    <glyph glyph-name=".notdef" horiz-adv-x="393" 
d="M346 801v-800h-300v800h300zM296 751h-200v-700h200v700z" />
    <glyph glyph-name="space" unicode=" " horiz-adv-x="200" 
 />
    <glyph glyph-name="exclam" unicode="!" horiz-adv-x="184" 
d="M140 96v-96h-96v96h96zM144 817l-4 -654h-96l-4 654h104z" />
    <glyph glyph-name="quotedbl" unicode="&#x22;" horiz-adv-x="349" 
d="M127 637h-57l32 56h-49v124h106v-124zM264 637h-57l32 56h-49v124h106v-124z" />
    <glyph glyph-name="numbersign" unicode="#" horiz-adv-x="530" 
d="M225 452l-29 -153h110c11 56 17 93 29 154c-37 0 -67 -1 -110 -1zM452 549h47v-96h-65l-30 -154h73v-96h-90c-14 -73 -26 -133 -39 -203h-97l37 203h-110c-14 -73 -25 -132 -38 -203h-97l37 203h-55v96h72c10 56 19 93 30 154h-78v96h96l51 268h98l-51 -268h110
c16 85 36 186 51 268h99z" />
    <glyph glyph-name="dollar" unicode="$" horiz-adv-x="409" 
d="M281 148v128c0 24 -10 43 -28 56v-244c15 14 28 38 28 60zM128 643v-131c0 -24 10 -43 28 -55v246c-18 -14 -28 -36 -28 -60zM253 -19v-54h-97v54c-71 22 -125 91 -125 167v80h96v-80c0 -22 13 -45 29 -60v265c-71 19 -125 83 -125 159v131c0 77 51 145 125 166v53h97
v-53c74 -20 125 -87 125 -166v-83h-96v83c0 25 -10 47 -29 61v-271c67 -21 125 -82 125 -157v-128c0 -78 -53 -145 -125 -167z" />
    <glyph glyph-name="percent" unicode="%" horiz-adv-x="578" 
d="M89 -25l307 842h98l-307 -842h-98zM136 405c-56 0 -105 43 -105 101v180c0 57 50 101 105 101c54 0 103 -44 103 -101v-180c0 -58 -48 -101 -103 -101zM155 506v180c0 10 -11 18 -19 18c-12 0 -20 -8 -20 -18v-180c0 -10 9 -18 20 -18c10 0 19 8 19 18zM439 -25
c-57 0 -104 43 -104 101v181c0 57 46 101 104 101c55 0 103 -44 103 -101v-181c0 -57 -48 -101 -103 -101zM458 76v181c0 9 -9 17 -19 17c-11 0 -20 -7 -20 -17v-181c0 -10 8 -17 20 -17c11 0 19 8 19 17z" />
    <glyph glyph-name="ampersand" unicode="&#x26;" horiz-adv-x="529" 
d="M241 462h74v55h108v-55h63v-105h-63v-199c0 -100 -88 -174 -182 -174s-181 74 -181 174v130c0 44 17 86 49 123c-31 40 -49 80 -49 121v130c0 100 87 174 181 174c98 0 178 -85 182 -212h-108c-5 65 -33 106 -74 106s-74 -28 -74 -68v-130c2 -39 38 -70 74 -70zM315 158
v199h-74c-41 0 -74 -29 -74 -69v-130c0 -40 33 -68 74 -68s74 28 74 68z" />
    <glyph glyph-name="quotesingle" unicode="'" horiz-adv-x="213" 
d="M128 637h-57l32 56h-49v124h106v-124z" />
    <glyph glyph-name="parenleft" unicode="(" horiz-adv-x="364" 
d="M240 901h65v-100c-67 0 -136 -6 -136 -58v-648c0 -77 29 -92 136 -93v-100h-65c-95 0 -178 48 -178 156v685c0 110 82 158 178 158z" />
    <glyph glyph-name="parenright" unicode=")" horiz-adv-x="364" 
d="M62 901h65c96 0 178 -48 178 -158v-685c0 -108 -83 -156 -178 -156h-65v100c107 1 136 16 136 93v648c0 52 -69 58 -136 58v100z" />
    <glyph glyph-name="asterisk" unicode="*" horiz-adv-x="295" 
d="M260 742l-54 -36c15 -10 38 -23 54 -34c-14 -19 -23 -34 -36 -53l-44 30v-52h-66l1 55c-30 -23 -38 -27 -44 -32l-36 53l52 33l-52 35c14 19 23 33 36 52l43 -32v55h66l-1 -57c11 9 32 24 45 34c12 -18 24 -34 36 -51z" />
    <glyph glyph-name="plus" unicode="+" horiz-adv-x="408" 
d="M393 444v-97h-140v-141h-97v141h-141v97h141v139h97v-139h140z" />
    <glyph glyph-name="comma" unicode="," horiz-adv-x="163" 
d="M133 112v-101l-96 -69v170h96z" />
    <glyph glyph-name="hyphen" unicode="-" horiz-adv-x="406" 
d="M348 347h-291v97h291v-97z" />
    <glyph glyph-name="period" unicode="." horiz-adv-x="192" 
d="M142 112v-112h-96v112h96z" />
    <glyph glyph-name="slash" unicode="/" horiz-adv-x="418" 
d="M411 829l-307 -842h-98l306 842h99z" />
    <glyph glyph-name="zero" unicode="0" horiz-adv-x="503" 
d="M252 -9c-108 0 -202 84 -202 195v436c0 111 94 195 202 195c107 0 201 -84 201 -195v-436c0 -111 -94 -195 -201 -195zM252 723c-56 0 -107 -44 -107 -101v-401l179 474c-18 16 -46 28 -72 28zM252 85c56 0 105 44 105 101v330l-159 -417c17 -9 36 -14 54 -14z" />
    <glyph glyph-name="one" unicode="1" horiz-adv-x="277" 
d="M245 0h-96v640c-36 -9 -80 -5 -117 -5v96h33c36 0 84 -1 84 36v50h96v-817z" />
    <glyph glyph-name="two" unicode="2" horiz-adv-x="456" 
d="M150 649v-129h-96v129c0 94 80 168 172 168c94 0 172 -78 172 -168c0 -115 1 -118 1 -146c0 -128 -74 -178 -143 -223c-67 -43 -131 -108 -114 -185h272v-95h-373v71c0 122 20 196 130 267c78 49 133 85 133 162l-2 149c-1 41 -37 73 -76 73c-40 0 -76 -34 -76 -73z" />
    <glyph glyph-name="three" unicode="3" horiz-adv-x="446" 
d="M181 367h-48v95h47c42 0 122 0 122 56v130c0 42 -36 73 -79 73c-42 0 -79 -31 -79 -73v-128h-98v128c0 96 84 169 177 169c94 0 176 -72 176 -169v-130c0 -50 -19 -69 -53 -104c34 -31 53 -73 53 -121v-130c0 -97 -82 -169 -176 -169c-93 0 -177 73 -177 169v127h98v-127
c0 -44 39 -73 79 -73c43 0 79 31 79 73v130c0 67 -71 76 -121 74z" />
    <glyph glyph-name="four" unicode="4" horiz-adv-x="454" 
d="M376 147v-147h-96v147h-259v77l266 593h89v-574h56v-96h-56zM280 243v325c-49 -108 -94 -206 -147 -325h147z" />
    <glyph glyph-name="five" unicode="5" horiz-adv-x="494" 
d="M247 554c111 0 200 -89 200 -200v-161c0 -111 -89 -200 -200 -200c-112 0 -201 88 -201 200v55h95v-55c0 -57 49 -104 106 -104s104 47 104 104v161c0 57 -47 105 -104 105c-55 0 -102 -53 -107 -120h-94v478h401v-96h-306v-195c32 20 66 28 106 28z" />
    <glyph glyph-name="six" unicode="6" horiz-adv-x="500" 
d="M250 537c107 0 202 -86 202 -195v-156c0 -111 -95 -195 -202 -195s-202 84 -202 195v436c0 111 95 195 202 195s202 -84 202 -195v-46h-96v46c0 58 -49 101 -106 101s-105 -42 -105 -101v-113c30 18 67 28 105 28zM250 442c-57 0 -105 -42 -105 -100v-156
c0 -59 48 -101 105 -101s106 43 106 101v156c0 57 -49 100 -106 100z" />
    <glyph glyph-name="seven" unicode="7" horiz-adv-x="411" 
d="M389 731l-222 -731h-100l219 721h-264v96h367v-86z" />
    <glyph glyph-name="eight" unicode="8" horiz-adv-x="498" 
d="M47 560v65c0 110 95 192 202 192s201 -80 201 -192v-65c0 -59 -27 -111 -71 -146c44 -35 71 -87 71 -146v-97c0 -102 -88 -178 -187 -178h-29c-99 0 -187 76 -187 178v97c0 60 28 110 72 146c-44 35 -72 86 -72 146zM234 86h29c47 0 91 37 91 85v97c0 57 -49 98 -105 98
s-106 -41 -106 -98v-97c0 -48 43 -85 91 -85zM249 462c56 0 105 41 105 98v65c0 56 -50 99 -105 99c-56 0 -106 -43 -106 -99v-65c0 -57 50 -98 106 -98z" />
    <glyph glyph-name="nine" unicode="9" horiz-adv-x="499" 
d="M249 271c-107 0 -202 86 -202 195v156c0 111 95 195 202 195s202 -84 202 -195v-436c0 -111 -95 -195 -202 -195s-202 84 -202 195v46h96v-46c0 -58 49 -101 106 -101s105 42 105 101v113c-30 -18 -67 -28 -105 -28zM249 366c57 0 105 42 105 100v156
c0 59 -48 101 -105 101s-106 -43 -106 -101v-156c0 -57 49 -100 106 -100z" />
    <glyph glyph-name="colon" unicode=":" horiz-adv-x="169" 
d="M133 112v-112h-96v112h96zM133 412v-112h-96v112h96z" />
    <glyph glyph-name="semicolon" unicode=";" horiz-adv-x="169" 
d="M133 412v-112h-96v112h96zM133 112v-101l-96 -69v170h96z" />
    <glyph glyph-name="less" unicode="&#x3c;" horiz-adv-x="428" 
d="M403 314v-100l-378 142v81l378 142v-100l-241 -83c79 -27 167 -56 241 -82z" />
    <glyph glyph-name="equal" unicode="=" horiz-adv-x="391" 
d="M351 422h-308v97h308v-97zM351 271h-308v97h308v-97z" />
    <glyph glyph-name="greater" unicode="&#x3e;" horiz-adv-x="428" 
d="M25 214v100c74 26 162 55 241 82l-241 83v100l378 -142v-81z" />
    <glyph glyph-name="question" unicode="?" horiz-adv-x="387" 
d="M367 643v-101c0 -160 -186 -186 -186 -327v-51h-97v51c0 135 186 228 187 318l-1 110c0 42 -35 78 -76 78c-43 0 -78 -35 -78 -78v-82h-96v82c0 96 78 174 174 174c95 0 173 -78 173 -174zM179 96v-96h-96v96h96z" />
    <glyph glyph-name="at" unicode="@" horiz-adv-x="668" 
d="M335 -5h77c39 0 94 34 150 86v-130c-48 -30 -101 -49 -150 -49h-77c-180 0 -325 143 -325 324v198c0 181 145 326 325 326h125c112 0 201 -89 201 -201v-216c0 -101 -56 -211 -174 -211c-18 0 -31 0 -50 5c-33 -24 -80 -43 -115 -43c-88 0 -155 67 -155 155
c0 49 8 92 12 140c10 88 85 163 175 163h88c42 0 73 -34 75 -74l-24 -253c52 10 75 66 75 118v216c0 58 -50 108 -108 108h-125c-126 0 -232 -106 -232 -233v-198c0 -127 106 -231 232 -231zM354 449c-41 0 -78 -35 -82 -75l-12 -135c0 -35 28 -62 62 -62c49 0 78 38 84 81
l19 193z" />
    <glyph glyph-name="A" unicode="A" horiz-adv-x="465" 
d="M182 299h99l-51 246c-16 -80 -30 -156 -48 -246zM445 0h-99l-47 202h-135l-45 -202h-99l165 817h89z" />
    <glyph glyph-name="B" unicode="B" horiz-adv-x="476" 
d="M46 0v817h185c101 0 184 -82 184 -183v-103c0 -50 -20 -92 -51 -125c50 -37 80 -97 80 -160v-48c0 -111 -89 -198 -199 -198h-199zM245 348h-103v-252h103c56 0 102 46 102 102v48c0 56 -46 102 -102 102zM231 721h-89v-277h89c47 0 87 40 87 87v103c0 47 -40 87 -87 87z
" />
    <glyph glyph-name="C" unicode="C" horiz-adv-x="480" 
d="M255 -7c-109 0 -204 78 -204 174v476c0 96 95 174 204 174c102 0 184 -78 184 -174v-54h-97v54c0 42 -40 78 -87 78c-57 0 -107 -36 -107 -78v-476c0 -42 50 -78 107 -78c47 0 87 36 87 78v58h97v-58c0 -96 -82 -174 -184 -174z" />
    <glyph glyph-name="D" unicode="D" horiz-adv-x="438" 
d="M221 723h-78v-629h78c40 0 77 30 77 71v487c0 41 -37 71 -77 71zM221 0h-174v817h174c91 0 174 -70 174 -165v-487c0 -95 -83 -165 -174 -165z" />
    <glyph glyph-name="E" unicode="E" horiz-adv-x="389" 
d="M47 817h314v-96h-218v-276h191v-96h-191v-253h218v-96h-314v817z" />
    <glyph glyph-name="F" unicode="F" horiz-adv-x="367" 
d="M144 445h191v-96h-191v-349h-96v817h314v-96h-218v-276z" />
    <glyph glyph-name="G" unicode="G" horiz-adv-x="489" 
d="M255 -7c-106 0 -204 71 -204 165v487c0 95 95 172 204 172c100 0 184 -77 184 -172v-118h-96v118c0 41 -41 76 -88 76c-57 0 -107 -35 -107 -76v-487c0 -41 52 -71 107 -71c45 0 88 30 88 71v194h-102v95h198v-289c0 -94 -88 -165 -184 -165z" />
    <glyph glyph-name="H" unicode="H" horiz-adv-x="450" 
d="M401 817v-817h-97v349h-159v-349h-97v817h97v-372h159v372h97z" />
    <glyph glyph-name="I" unicode="I" horiz-adv-x="198" 
d="M145 817v-817h-96v817h96z" />
    <glyph glyph-name="J" unicode="J" horiz-adv-x="291" 
d="M70 0h-63v90c99 -1 140 17 140 63v664h96v-664c0 -105 -78 -153 -173 -153z" />
    <glyph glyph-name="K" unicode="K" horiz-adv-x="502" 
d="M146 380v-380h-96v817h96v-276c67 91 137 188 204 276h120l-235 -317l215 -500h-103l-180 410z" />
    <glyph glyph-name="L" unicode="L" horiz-adv-x="341" 
d="M317 96v-96h-267v817h96v-721h171z" />
    <glyph glyph-name="M" unicode="M" horiz-adv-x="606" 
d="M458 445l-107 -445h-86l-119 449v-449h-96v817h104l154 -619l155 619h92v-817h-97v445z" />
    <glyph glyph-name="N" unicode="N" horiz-adv-x="479" 
d="M147 538v-538h-96v817h104l176 -522v522h96v-817h-89z" />
    <glyph glyph-name="O" unicode="O" 
d="M247 88c56 0 105 30 105 71v493c0 41 -49 71 -105 71c-55 0 -105 -30 -105 -71v-493c0 -41 50 -71 105 -71zM448 652v-493c0 -94 -94 -165 -201 -165c-105 0 -201 71 -201 165v493c0 94 96 165 201 165c107 0 201 -71 201 -165z" />
    <glyph glyph-name="P" unicode="P" horiz-adv-x="411" 
d="M400 643v-122c0 -96 -78 -173 -174 -173h-77v-348h-97v817h174c95 0 174 -78 174 -174zM226 721h-77v-277h77c42 0 77 35 77 77v122c0 42 -35 78 -77 78z" />
    <glyph glyph-name="Q" unicode="Q" horiz-adv-x="486" 
d="M370 -92h-97l-22 86h-10c-107 0 -201 69 -201 164v493c0 95 94 165 201 165c109 0 201 -70 201 -165v-493c0 -62 -34 -109 -98 -137zM204 186h99l17 -69c13 11 26 29 26 41v493c0 40 -51 71 -105 71c-53 0 -105 -30 -105 -71v-493c0 -38 44 -68 93 -71z" />
    <glyph glyph-name="R" unicode="R" horiz-adv-x="454" 
d="M149 348v-348h-97v817h174c96 0 175 -78 175 -174v-122c0 -45 -21 -90 -52 -122c38 -33 59 -83 59 -132v-267h-97v267c0 44 -37 81 -80 81h-82zM226 721h-77v-277h81c41 0 73 36 73 77v122c0 43 -34 78 -77 78z" />
    <glyph glyph-name="S" unicode="S" horiz-adv-x="451" 
d="M139 643v-120c0 -42 41 -68 89 -71c92 -7 181 -69 181 -165v-117c0 -96 -83 -174 -183 -174c-102 0 -184 78 -184 174v79h96v-79c0 -42 40 -78 88 -78s86 36 86 78v117c0 42 -41 71 -88 71c-97 0 -182 70 -182 165v120c0 96 82 174 184 174s183 -78 183 -174v-82h-96v82
c0 43 -40 78 -87 78c-49 0 -87 -36 -87 -78z" />
    <glyph glyph-name="T" unicode="T" horiz-adv-x="431" 
d="M264 721v-721h-96v721h-130v96h354v-96h-128z" />
    <glyph glyph-name="U" unicode="U" horiz-adv-x="467" 
d="M232 91c46 0 86 34 86 75v651h97v-651c0 -94 -83 -171 -183 -171c-99 0 -181 77 -181 171v651h96v-651c0 -41 39 -75 85 -75z" />
    <glyph glyph-name="V" unicode="V" horiz-adv-x="475" 
d="M26 817h98l115 -606l112 606h98l-147 -817h-126z" />
    <glyph glyph-name="W" unicode="W" horiz-adv-x="673" 
d="M336 495l-75 -495h-103l-121 817h98l75 -494l75 494h103l75 -494l75 494h98l-121 -817h-103z" />
    <glyph glyph-name="X" unicode="X" horiz-adv-x="558" 
d="M332 397l182 -397h-104l-131 277c-43 -99 -89 -182 -131 -277h-104l183 396c-57 130 -126 292 -182 421h105l129 -298c42 98 88 203 129 298h105c-102 -241 -138 -326 -181 -420z" />
    <glyph glyph-name="Y" unicode="Y" horiz-adv-x="506" 
d="M301 0h-96v394c-57 131 -129 293 -186 423h105l129 -293c42 97 89 201 129 293h105l-186 -423v-394z" />
    <glyph glyph-name="Z" unicode="Z" horiz-adv-x="498" 
d="M156 96h300v-96h-415v77l298 644h-298v96h415v-77z" />
    <glyph glyph-name="bracketleft" unicode="[" horiz-adv-x="297" 
d="M139 804v-806h116v-97h-213v1000h213v-97h-116z" />
    <glyph glyph-name="backslash" unicode="\" horiz-adv-x="418" 
d="M313 -13l-307 842h99l306 -842h-98z" />
    <glyph glyph-name="bracketright" unicode="]" horiz-adv-x="297" 
d="M158 -2v806h-116v97h213v-1000h-213v97h116z" />
    <glyph glyph-name="asciicircum" unicode="^" horiz-adv-x="434" 
d="M186 821h66l157 -196h-108l-82 102c0 -1 -89 -102 -89 -102h-106z" />
    <glyph glyph-name="underscore" unicode="_" horiz-adv-x="577" 
d="M519 -70h-462v60h462v-60z" />
    <glyph glyph-name="grave" unicode="`" horiz-adv-x="240" 
d="M18 817h128l63 -142h-98z" />
    <glyph glyph-name="a" unicode="a" horiz-adv-x="474" 
d="M177 219h119l-61 326c-19 -104 -36 -204 -58 -326zM450 0h-118l-27 122h-137l-25 -122h-118l165 817h89z" />
    <glyph glyph-name="b" unicode="b" horiz-adv-x="496" 
d="M46 0v817h185c101 0 184 -82 184 -183v-103c0 -50 -20 -92 -51 -125c50 -37 80 -97 80 -160v-48c0 -111 -89 -198 -199 -198h-199zM245 348h-103v-252h103c56 0 102 46 102 102v48c0 56 -46 102 -102 102zM231 721h-89v-277h89c47 0 87 40 87 87v103c0 47 -40 87 -87 87z
" />
    <glyph glyph-name="c" unicode="c" horiz-adv-x="480" 
d="M255 -7c-109 0 -204 78 -204 174v476c0 96 95 174 204 174c102 0 184 -78 184 -174v-54h-97v54c0 42 -40 78 -87 78c-57 0 -107 -36 -107 -78v-476c0 -42 50 -78 107 -78c47 0 87 36 87 78v58h97v-58c0 -96 -82 -174 -184 -174z" />
    <glyph glyph-name="d" unicode="d" horiz-adv-x="438" 
d="M221 723h-78v-629h78c40 0 77 30 77 71v487c0 41 -37 71 -77 71zM221 0h-174v817h174c91 0 174 -70 174 -165v-487c0 -95 -83 -165 -174 -165z" />
    <glyph glyph-name="e" unicode="e" horiz-adv-x="404" 
d="M57 817h314v-96h-218v-196h191v-96h-191v-333h218v-96h-314v817z" />
    <glyph glyph-name="f" unicode="f" horiz-adv-x="377" 
d="M153 365h191v-96h-191v-269h-96v817h314v-96h-218v-356z" />
    <glyph glyph-name="g" unicode="g" horiz-adv-x="489" 
d="M255 -7c-106 0 -204 71 -204 165v487c0 95 95 172 204 172c100 0 184 -77 184 -172v-118h-96v118c0 41 -41 76 -88 76c-57 0 -107 -35 -107 -76v-487c0 -41 52 -71 107 -71c45 0 88 30 88 71v114h-102v95h198v-209c0 -94 -88 -165 -184 -165z" />
    <glyph glyph-name="h" unicode="h" horiz-adv-x="450" 
d="M401 817v-817h-97v349h-159v-349h-97v817h97v-372h159v372h97z" />
    <glyph glyph-name="i" unicode="i" horiz-adv-x="198" 
d="M145 817v-817h-96v817h96z" />
    <glyph glyph-name="j" unicode="j" horiz-adv-x="291" 
d="M70 0h-63v90c99 -1 140 17 140 63v664h96v-664c0 -105 -78 -153 -173 -153z" />
    <glyph glyph-name="k" unicode="k" horiz-adv-x="502" 
d="M146 380v-380h-96v817h96v-276c67 91 137 188 204 276h120l-235 -317l215 -500h-103l-180 410z" />
    <glyph glyph-name="l" unicode="l" horiz-adv-x="341" 
d="M317 96v-96h-267v817h96v-721h171z" />
    <glyph glyph-name="m" unicode="m" horiz-adv-x="606" 
d="M458 445l-107 -445h-86l-119 449v-449h-96v817h104l154 -619l155 619h92v-817h-97v445z" />
    <glyph glyph-name="n" unicode="n" horiz-adv-x="479" 
d="M147 538v-538h-96v817h104l176 -522v522h96v-817h-89z" />
    <glyph glyph-name="o" unicode="o" 
d="M247 88c56 0 105 30 105 71v493c0 41 -49 71 -105 71c-55 0 -105 -30 -105 -71v-493c0 -41 50 -71 105 -71zM448 652v-493c0 -94 -94 -165 -201 -165c-105 0 -201 71 -201 165v493c0 94 96 165 201 165c107 0 201 -71 201 -165z" />
    <glyph glyph-name="p" unicode="p" horiz-adv-x="423" 
d="M405 643v-202c0 -96 -78 -173 -174 -173h-77v-268h-97v817h174c95 0 174 -78 174 -174zM231 721h-77v-357h77c42 0 77 35 77 77v202c0 42 -35 78 -77 78z" />
    <glyph glyph-name="q" unicode="q" horiz-adv-x="486" 
d="M370 -92h-97l-22 86h-10c-107 0 -201 69 -201 164v493c0 95 94 165 201 165c109 0 201 -70 201 -165v-493c0 -62 -34 -109 -98 -137zM204 186h99l17 -69c13 11 26 29 26 41v493c0 40 -51 71 -105 71c-53 0 -105 -30 -105 -71v-493c0 -38 44 -68 93 -71z" />
    <glyph glyph-name="r" unicode="r" horiz-adv-x="464" 
d="M154 268v-268h-97v817h174c96 0 175 -78 175 -174v-202c0 -45 -21 -90 -52 -122c38 -34 59 -83 59 -132v-187h-97v187c0 44 -37 81 -80 81h-82zM231 721h-77v-357h81c41 0 73 36 73 77v202c0 43 -34 78 -77 78z" />
    <glyph glyph-name="s" unicode="s" horiz-adv-x="451" 
d="M139 643v-120c0 -42 41 -68 89 -71c92 -7 181 -69 181 -165v-117c0 -96 -83 -174 -183 -174c-102 0 -184 78 -184 174v79h96v-79c0 -42 40 -78 88 -78s86 36 86 78v117c0 42 -41 71 -88 71c-97 0 -182 70 -182 165v120c0 96 82 174 184 174s183 -78 183 -174v-82h-96v82
c0 43 -40 78 -87 78c-49 0 -87 -36 -87 -78z" />
    <glyph glyph-name="t" unicode="t" horiz-adv-x="431" 
d="M264 721v-721h-96v721h-130v96h354v-96h-128z" />
    <glyph glyph-name="u" unicode="u" horiz-adv-x="467" 
d="M232 91c46 0 86 34 86 75v651h97v-651c0 -94 -83 -171 -183 -171c-99 0 -181 77 -181 171v651h96v-651c0 -41 39 -75 85 -75z" />
    <glyph glyph-name="v" unicode="v" horiz-adv-x="475" 
d="M26 817h98l115 -606l112 606h98l-147 -817h-126z" />
    <glyph glyph-name="w" unicode="w" horiz-adv-x="673" 
d="M336 495l-75 -495h-103l-121 817h98l75 -494l75 494h103l75 -494l75 494h98l-121 -817h-103z" />
    <glyph glyph-name="x" unicode="x" horiz-adv-x="558" 
d="M332 397l182 -397h-104l-131 277c-43 -99 -89 -182 -131 -277h-104l183 396c-57 130 -126 292 -182 421h105l129 -298c42 98 88 203 129 298h105c-102 -241 -138 -326 -181 -420z" />
    <glyph glyph-name="y" unicode="y" horiz-adv-x="506" 
d="M301 0h-96v394c-57 131 -129 293 -186 423h105l129 -293c42 97 89 201 129 293h105l-186 -423v-394z" />
    <glyph glyph-name="z" unicode="z" horiz-adv-x="498" 
d="M156 96h300v-96h-415v77l298 644h-298v96h415v-77z" />
    <glyph glyph-name="braceleft" unicode="{" horiz-adv-x="310" 
d="M284 -10v-86c-13 -1 -51 -3 -65 -3c-78 0 -123 42 -123 120v305c0 32 -22 43 -71 43v90c49 0 71 11 71 43v222c-1 87 -2 178 123 178h65v-90h-34c-37 0 -60 0 -60 -42c0 -124 2 -200 2 -276c0 -36 -6 -61 -25 -80c22 -20 25 -44 25 -80v-303c0 -42 17 -41 54 -41h38z" />
    <glyph glyph-name="bar" unicode="|" horiz-adv-x="169" 
d="M128 890v-980h-96v980h96z" />
    <glyph glyph-name="braceright" unicode="}" horiz-adv-x="310" 
d="M25 -96v86h38c37 0 54 -1 54 41v303c0 36 3 60 25 80c-20 19 -25 44 -25 80c0 104 2 190 2 276c0 42 -23 42 -60 42h-34v90h65c125 0 124 -91 123 -178v-222c0 -32 22 -43 71 -43v-90c-49 0 -71 -11 -71 -43v-305c0 -78 -45 -120 -123 -120c-14 0 -52 2 -65 3z" />
    <glyph glyph-name="asciitilde" unicode="~" horiz-adv-x="403" 
d="M264 328c-48 2 -89 36 -124 36c-18 0 -45 -22 -69 -46l-63 68c43 43 79 75 132 75c46 0 81 -36 124 -36c17 0 42 21 66 45l65 -65c-44 -45 -78 -77 -131 -77z" />
    <glyph glyph-name="cent" unicode="&#xa2;" horiz-adv-x="366" 
d="M115 82h-82l39 106c-26 30 -45 73 -45 112v189c0 91 74 164 164 164c17 0 35 -2 49 -6c2 5 2 9 15 44h82l-31 -83c48 -45 49 -92 49 -163h-77v23c0 19 -1 37 -5 51l-110 -301c8 -3 21 -6 28 -6c47 0 87 41 87 88v48h77v-48c0 -91 -73 -164 -164 -164c-18 0 -38 3 -54 8
c-6 -14 -10 -27 -22 -62zM105 283l107 290c-8 3 -16 4 -21 4c-46 0 -87 -41 -87 -88c0 -195 0 -200 1 -206z" />
    <glyph glyph-name="sterling" unicode="&#xa3;" horiz-adv-x="406" 
d="M53 365h-44v97h44v176c0 96 79 174 174 174c96 0 174 -78 174 -174v-54h-97v54c0 42 -35 78 -77 78c-41 0 -77 -37 -77 -78v-176h166v-97h-166v-253c63 12 95 -32 134 -32c17 0 26 7 50 31l68 -67c-45 -41 -65 -58 -118 -58c-49 0 -88 36 -134 36c-18 0 -45 -22 -69 -46
l-63 68c15 15 28 28 35 33v288z" />
    <glyph glyph-name="currency" unicode="&#xa4;" horiz-adv-x="405" 
d="M105 204h-103l72 118c-19 29 -29 65 -29 97s10 69 29 97c-3 6 -8 12 -70 118h102l38 -63c19 7 39 11 58 11c17 0 38 -4 57 -13l39 65h105l-73 -119c19 -28 29 -65 29 -96c0 -33 -10 -69 -29 -97c23 -37 51 -81 73 -118h-103l-39 62c-19 -7 -40 -10 -59 -10s-40 3 -58 10z
M202 492c-38 0 -67 -37 -67 -73c0 -37 29 -74 67 -74s67 37 67 74c0 36 -29 73 -67 73z" />
    <glyph glyph-name="brokenbar" unicode="&#xa6;" horiz-adv-x="193" 
d="M144 890v-386h-96v386h96zM144 296v-386h-96v386h96z" />
    <glyph glyph-name="section" unicode="&#xa7;" horiz-adv-x="369" 
d="M344 411v-51c0 -40 -17 -72 -46 -97c28 -22 46 -52 46 -91v-99c0 -82 -83 -137 -158 -137c-76 0 -158 55 -158 137v67h91v-67c0 -31 35 -51 67 -51c31 0 66 20 66 51v99c0 32 -37 48 -68 48c-93 0 -157 56 -157 151c-1 35 0 90 43 131c-25 23 -42 54 -42 91v101
c0 84 81 139 158 139c76 0 158 -54 158 -139v-70h-91v70c0 33 -35 53 -67 53s-67 -21 -67 -53v-101c0 -31 36 -47 67 -47c71 0 158 -53 158 -135zM119 406v-53c0 -27 39 -47 67 -47c32 0 66 21 66 54v51c0 31 -37 50 -67 50c-33 0 -66 -22 -66 -55z" />
    <glyph glyph-name="dieresis" unicode="&#xa8;" horiz-adv-x="305" 
d="M134 816v-89h-76v89h76zM247 816v-89h-76v89h76z" />
    <glyph glyph-name="guillemotleft" unicode="&#xab;" horiz-adv-x="483" 
d="M247 220v-120l-208 228v65l208 228v-120l-121 -141c39 -45 84 -96 121 -140zM444 220v-120l-208 228v65l208 228v-120l-121 -141c39 -45 84 -96 121 -140z" />
    <glyph glyph-name="logicalnot" unicode="&#xac;" horiz-adv-x="471" 
d="M424 444v-181h-97v84h-281v97h378z" />
    <glyph glyph-name="degree" unicode="&#xb0;" horiz-adv-x="289" 
d="M249 712c0 -59 -47 -104 -105 -104c-60 0 -104 44 -104 104s45 105 104 105c58 0 105 -47 105 -105zM193 712c0 26 -23 49 -49 49c-25 0 -48 -23 -48 -49c0 -25 23 -48 48 -48c26 0 49 23 49 48z" />
    <glyph glyph-name="plusminus" unicode="&#xb1;" horiz-adv-x="443" 
d="M410 444v-97h-140v-141h-97v141h-141v97h141v139h97v-139h140zM409 0h-376v96h376v-96z" />
    <glyph glyph-name="acute" unicode="&#xb4;" horiz-adv-x="240" 
d="M91 817h128l-93 -142h-98z" />
    <glyph glyph-name="periodcentered" unicode="&#xb7;" horiz-adv-x="192" 
d="M142 451v-112h-96v112h96z" />
    <glyph glyph-name="cedilla" unicode="&#xb8;" horiz-adv-x="146" 
d="M27 17h43v-32c33 3 67 -11 67 -57c0 -43 -33 -60 -70 -60c-17 0 -37 5 -56 13l17 41c12 -6 28 -11 38 -11c13 0 26 5 26 19c0 29 -47 19 -65 16v71z" />
    <glyph glyph-name="guillemotright" unicode="&#xbb;" horiz-adv-x="483" 
d="M39 100v120c37 44 82 95 121 140l-121 141v120l208 -228v-65zM236 100v120c37 44 82 95 121 140l-121 141v120l208 -228v-65z" />
    <glyph glyph-name="AE" unicode="&#xc6;" horiz-adv-x="716" 
d="M347 545l-98 -246h98v246zM18 0l338 817h316v-96h-227c0 -192 1 -222 1 -276h199v-96h-199c0 -103 -2 -148 -2 -253h228v-96h-326v202h-135l-92 -202h-101z" />
    <glyph glyph-name="multiply" unicode="&#xd7;" horiz-adv-x="408" 
d="M303 563l68 -68l-99 -99l100 -100l-69 -69l-99 100l-100 -100l-69 69l100 100l-98 98l68 68l99 -98z" />
    <glyph glyph-name="Thorn" unicode="&#xde;" horiz-adv-x="413" 
d="M231 530h-77v-276h77c42 0 77 34 77 76v123c0 42 -35 77 -77 77zM231 157h-77v-157h-97v817h97v-190h77c95 0 174 -79 174 -174v-123c0 -96 -78 -173 -174 -173z" />
    <glyph glyph-name="divide" unicode="&#xf7;" horiz-adv-x="406" 
d="M348 347h-291v97h291v-97zM247 303v-112h-96v112h96zM247 603v-112h-96v112h96z" />
    <glyph glyph-name="circumflex" unicode="&#x2c6;" horiz-adv-x="274" 
d="M166 817l79 -99h-70l-36 42l-37 -42h-73l84 99h53z" />
    <glyph glyph-name="caron" unicode="&#x2c7;" horiz-adv-x="274" 
d="M245 817l-79 -99h-53l-84 99h73l37 -42l36 42h70z" />
    <glyph glyph-name="breve" unicode="&#x2d8;" horiz-adv-x="209" 
d="M13 817h58c0 -22 16 -39 34 -39c17 0 33 17 33 39h58c0 -55 -40 -97 -91 -97c-53 0 -92 37 -92 97z" />
    <glyph glyph-name="dotaccent" unicode="&#x2d9;" horiz-adv-x="192" 
d="M142 817v-112h-96v112h96z" />
    <glyph glyph-name="ring" unicode="&#x2da;" horiz-adv-x="213" 
d="M182 741c0 -43 -34 -76 -76 -76c-44 0 -76 32 -76 76c0 43 33 76 76 76c42 0 76 -34 76 -76zM134 741c0 15 -13 28 -28 28s-28 -13 -28 -28s13 -28 28 -28s28 13 28 28z" />
    <glyph glyph-name="ogonek" unicode="&#x2db;" horiz-adv-x="154" 
d="M97 -251h-101l95 152h63z" />
    <glyph glyph-name="tilde" unicode="&#x2dc;" horiz-adv-x="337" 
d="M220 720c-26 0 -75 25 -98 25c-27 0 -38 -21 -50 -33l-34 46c20 23 41 49 71 49c36 0 63 -25 111 -25c3 0 21 -1 42 30l37 -49c-20 -28 -45 -43 -79 -43z" />
    <glyph glyph-name="hungarumlaut" unicode="&#x2dd;" horiz-adv-x="305" 
d="M90 700h-46l40 92h66zM212 700h-47l41 92h66z" />
    <glyph glyph-name="endash" unicode="&#x2013;" horiz-adv-x="471" 
d="M424 347h-378v97h378v-97z" />
    <glyph glyph-name="emdash" unicode="&#x2014;" horiz-adv-x="591" 
d="M533 347h-476v97h476v-97z" />
    <glyph glyph-name="bullet" unicode="&#x2022;" horiz-adv-x="260" 
d="M28 394c0 55 46 101 101 101c57 0 103 -44 103 -101s-46 -103 -103 -103s-101 46 -101 103z" />
    <glyph glyph-name="guilsinglleft" unicode="&#x2039;" horiz-adv-x="253" 
d="M230 220v-120l-208 228v65l208 228v-120l-121 -141c39 -45 84 -96 121 -140z" />
    <glyph glyph-name="guilsinglright" unicode="&#x203a;" horiz-adv-x="253" 
d="M22 100v120c37 44 82 95 121 140l-121 141v120l208 -228v-65z" />
    <glyph glyph-name="OE" unicode="&#x152;" horiz-adv-x="717" 
d="M359 817h314v-96h-218v-276h191v-96h-191v-253h218v-96h-314v24c-31 -16 -68 -24 -105 -24c-105 0 -201 71 -201 165v487c0 94 96 165 201 165c39 0 73 -8 105 -25v25zM254 94c56 0 105 30 105 71v490c-2 39 -51 68 -105 68c-55 0 -105 -30 -105 -71v-487
c0 -41 50 -71 105 -71z" />
    <glyph glyph-name="mu" unicode="&#xb5;" horiz-adv-x="436" 
d="M390 569l-1 -569h-96v33c-14 -20 -49 -33 -76 -33c-26 0 -53 6 -76 17v-160h-96l1 712h96v-398c0 -41 34 -75 75 -75c39 0 73 31 76 71v402h97z" />
    <glyph glyph-name="mu" unicode="&#x3bc;" horiz-adv-x="436" 
d="M390 569l-1 -569h-96v33c-14 -20 -49 -33 -76 -33c-26 0 -53 6 -76 17v-160h-96l1 712h96v-398c0 -41 34 -75 75 -75c39 0 73 31 76 71v402h97z" />
    <glyph glyph-name="paragraph" unicode="&#xb6;" horiz-adv-x="556" 
d="M520 714v-96h-71v-762h-96v762h-100v-762h-96v567c-71 9 -121 72 -121 145c0 82 64 146 146 146h338z" />
    <glyph glyph-name="minus" unicode="&#x2212;" horiz-adv-x="406" 
d="M348 347h-291v97h291v-97z" />
    <glyph glyph-name="copyright" unicode="&#xa9;" horiz-adv-x="866" 
d="M29 394c0 223 181 404 404 404s404 -181 404 -404s-181 -404 -404 -404s-404 181 -404 404zM88 394c0 -190 155 -345 345 -345s345 155 345 345s-155 345 -345 345s-345 -155 -345 -345zM436 139c90 0 164 74 164 164v48h-77v-48c0 -48 -39 -88 -87 -88
c-58 0 -107 40 -107 88v176c0 48 49 88 107 88c48 0 87 -40 87 -88v-44h77v44c0 90 -74 164 -164 164c-98 0 -184 -74 -184 -164v-176c0 -90 86 -164 184 -164z" />
    <glyph glyph-name="registered" unicode="&#xae;" horiz-adv-x="866" 
d="M377 127v171h47c46 0 85 -39 85 -86v-85h87v85c0 48 -22 98 -61 132c32 33 54 78 54 122v25c0 93 -77 169 -170 169h-129v-533h87zM377 574h42c46 0 82 -37 82 -83v-25c0 -44 -34 -82 -78 -82h-46v190zM29 394c0 223 181 404 404 404s404 -181 404 -404
s-181 -404 -404 -404s-404 181 -404 404zM88 394c0 -190 155 -345 345 -345s345 155 345 345s-155 345 -345 345s-345 -155 -345 -345z" />
    <glyph glyph-name="Euro" unicode="&#x20ac;" horiz-adv-x="531" 
d="M307 -7c-109 0 -204 78 -204 174v104h-64v97h64v54h-64v97h64v124c0 96 95 174 204 174c102 0 184 -78 184 -174v-73h-97v73c0 42 -40 78 -87 78c-57 0 -107 -36 -107 -78v-124h147v-97h-147v-54h147v-97h-147v-104c0 -42 50 -78 107 -78c47 0 87 36 87 78v69h97v-69
c0 -96 -82 -174 -184 -174z" />
    <glyph glyph-name="dagger" unicode="&#x2020;" horiz-adv-x="395" 
d="M149 596h-141v97h141v197h96v-197h141v-97h-141v-686h-96v686z" />
    <glyph glyph-name="daggerdbl" unicode="&#x2021;" horiz-adv-x="402" 
d="M153 596h-141v97h141v197h96v-197h141v-97h-141v-392h141v-97h-141v-197h-96v197h-141v97h141v392z" />
    <glyph glyph-name="quotedblright" unicode="&#x201d;" horiz-adv-x="349" 
d="M127 637h-57l32 56h-49v124h106v-124zM264 637h-57l32 56h-49v124h106v-124z" />
    <glyph glyph-name="quotedblleft" unicode="&#x201c;" horiz-adv-x="349" 
d="M222 817h57l-32 -56h49v-124h-106v124zM85 817h57l-32 -56h49v-124h-106v124z" />
    <glyph glyph-name="quoteright" unicode="&#x2019;" horiz-adv-x="213" 
d="M128 637h-57l32 56h-49v124h106v-124z" />
    <glyph glyph-name="quoteleft" unicode="&#x2018;" horiz-adv-x="213" 
d="M86 817h57l-32 -56h49v-124h-106v124z" />
    <glyph glyph-name="trademark" unicode="&#x2122;" horiz-adv-x="656" 
d="M185 759v-433h-58v433h-78v58h213v-58h-77zM547 596l-64 -270h-51l-72 270v-270h-57v491h62l92 -372l93 372h56v-491h-59v270z" />
    <glyph glyph-name="yen" unicode="&#xa5;" horiz-adv-x="506" 
d="M301 0h-96v209h-106v97h106v54h-106v97h78l-158 360h105l129 -293c42 96 89 201 129 293h105l-159 -360h79v-97h-106v-54h106v-97h-106v-209z" />
    <glyph glyph-name="twosuperior" unicode="&#xb2;" horiz-adv-x="440" 
d="M184 697v-85h-75v85c0 60 51 107 110 107c58 0 108 -50 108 -107v-99c0 -80 -45 -111 -86 -137c-34 -21 -64 -52 -63 -89h158v-74h-234v51c0 72 15 119 80 162c39 25 71 47 71 85l-1 101c-1 18 -17 33 -33 33c-19 0 -35 -17 -35 -33z" />
    <glyph glyph-name="threesuperior" unicode="&#xb3;" horiz-adv-x="429" 
d="M185 513h-38v74h53c26 1 44 12 44 34v75c0 18 -16 33 -35 33s-37 -15 -37 -33v-84h-75v84c0 62 53 108 112 108s110 -46 110 -108v-75c0 -28 -8 -51 -26 -71c18 -18 26 -42 26 -69v-75c0 -62 -51 -108 -110 -108s-112 46 -112 108v82h75v-82c1 -20 19 -33 37 -33
c19 0 35 14 35 33v75c-3 32 -34 34 -59 32z" />
    <glyph glyph-name="onesuperior" unicode="&#xb9;" horiz-adv-x="265" 
d="M179 299h-74v382c-14 -2 -29 -1 -43 -1h-24v75h28c17 0 39 -1 39 11v39h74v-506z" />
    <glyph glyph-name="questiondown" unicode="&#xbf;" horiz-adv-x="387" 
d="M20 -22v101c0 160 186 186 186 327v51h97v-51c0 -135 -186 -228 -187 -318l1 -110c0 -42 35 -79 76 -79c43 0 78 36 78 79v82h96v-82c0 -96 -78 -174 -174 -174c-95 0 -173 78 -173 174zM208 525v96h96v-96h-96z" />
    <glyph glyph-name="Ccedilla" unicode="&#xc7;" horiz-adv-x="480" 
d="M439 589h-97v54c0 42 -40 78 -87 78c-57 0 -107 -36 -107 -78v-476c0 -42 50 -78 107 -78c47 0 87 36 87 78v58h97v-58c0 -91 -74 -166 -168 -173v-9c33 3 67 -11 67 -57c0 -43 -33 -60 -70 -60c-17 0 -37 5 -56 13l17 41c12 -6 28 -11 38 -11c13 0 26 5 26 19
c0 29 -47 19 -65 16v49c-97 11 -177 84 -177 172v476c0 96 95 174 204 174c102 0 184 -78 184 -174v-54z" />
    <glyph glyph-name="ccedilla" unicode="&#xe7;" horiz-adv-x="480" 
d="M439 589h-97v54c0 42 -40 78 -87 78c-57 0 -107 -36 -107 -78v-476c0 -42 50 -78 107 -78c47 0 87 36 87 78v58h97v-58c0 -91 -74 -166 -168 -173v-9c33 3 67 -11 67 -57c0 -43 -33 -60 -70 -60c-17 0 -37 5 -56 13l17 41c12 -6 28 -11 38 -11c13 0 26 5 26 19
c0 29 -47 19 -65 16v49c-97 11 -177 84 -177 172v476c0 96 95 174 204 174c102 0 184 -78 184 -174v-54z" />
    <glyph glyph-name="ae" unicode="&#xe6;" horiz-adv-x="716" 
d="M347 545l-98 -246h98v246zM18 0l338 817h316v-96h-227c0 -192 1 -222 1 -276h199v-96h-199c0 -103 -2 -148 -2 -253h228v-96h-326v202h-135l-92 -202h-101z" />
    <glyph glyph-name="oe" unicode="&#x153;" horiz-adv-x="717" 
d="M359 817h314v-96h-218v-276h191v-96h-191v-253h218v-96h-314v24c-31 -16 -68 -24 -105 -24c-105 0 -201 71 -201 165v487c0 94 96 165 201 165c39 0 73 -8 105 -25v25zM254 94c56 0 105 30 105 71v490c-2 39 -51 68 -105 68c-55 0 -105 -30 -105 -71v-487
c0 -41 50 -71 105 -71z" />
    <glyph glyph-name="onequarter" unicode="&#xbc;" horiz-adv-x="661" 
d="M549 100v-100h-74v100h-150v56l158 350h66v-332h33v-74h-33zM475 174v135c-20 -43 -39 -86 -60 -135h60zM189 299h-74v382c-15 -2 -29 -1 -43 -1h-24v75h27c18 0 40 -1 40 11v39h74v-506zM108 -13l514 842h-71l-513 -842h70z" />
    <glyph glyph-name="onehalf" unicode="&#xbd;" horiz-adv-x="680" 
d="M191 299h-74v382c-14 -2 -29 -1 -43 -1h-24v75h28c17 0 39 -1 39 11v39h74v-506zM624 829l-514 -842h-70l513 842h71zM501 399v-85h-75v85c0 60 51 107 110 107c58 0 108 -50 108 -107v-99c0 -80 -45 -111 -86 -137c-34 -21 -64 -52 -63 -89h158v-74h-234v51
c0 72 15 119 80 162c39 25 71 47 71 85l-1 101c-1 18 -17 33 -33 33c-19 0 -35 -17 -35 -33z" />
    <glyph glyph-name="threequarters" unicode="&#xbe;" horiz-adv-x="689" 
d="M647 829l-514 -842h-70l513 842h71zM118 526h-38v74h53c26 1 44 12 44 34v75c0 18 -16 33 -35 33s-37 -15 -37 -33v-84h-75v84c0 62 53 108 112 108s110 -46 110 -108v-75c0 -28 -8 -51 -26 -71c18 -18 26 -42 26 -69v-75c0 -62 -51 -108 -110 -108s-112 46 -112 108v82
h75v-82c1 -20 19 -33 37 -33c19 0 35 14 35 33v75c-3 32 -34 34 -59 32zM574 100v-100h-74v100h-150v56l158 350h66v-332h33v-74h-33zM500 174v135c-20 -43 -39 -86 -60 -135h60z" />
    <glyph glyph-name="fraction" unicode="&#x2044;" horiz-adv-x="590" 
d="M587 829l-514 -842h-70l513 842h71z" />
    <glyph glyph-name="Eth" unicode="&#xd0;" horiz-adv-x="481" 
d="M90 347h-64v97h64v373h174c91 0 174 -70 174 -165v-487c0 -95 -83 -165 -174 -165h-174v347zM264 723h-78v-279h102v-97h-102v-253h78c40 0 77 30 77 71v487c0 41 -37 71 -77 71z" />
    <glyph glyph-name="eth" unicode="&#xf0;" horiz-adv-x="481" 
d="M90 347h-64v97h64v373h174c91 0 174 -70 174 -165v-487c0 -95 -83 -165 -174 -165h-174v347zM264 723h-78v-279h102v-97h-102v-253h78c40 0 77 30 77 71v487c0 41 -37 71 -77 71z" />
    <glyph glyph-name="Agrave" unicode="&#xc0;" horiz-adv-x="465" 
d="M182 299h99l-51 246c-16 -80 -30 -156 -48 -246zM445 0h-99l-47 202h-135l-45 -202h-99l165 817h89zM93 1002h128l63 -142h-98z" />
    <glyph glyph-name="Aacute" unicode="&#xc1;" horiz-adv-x="465" 
d="M182 299h99l-51 246c-16 -80 -30 -156 -48 -246zM445 0h-99l-47 202h-135l-45 -202h-99l165 817h89zM248 1003h128l-93 -142h-98z" />
    <glyph glyph-name="Acircumflex" unicode="&#xc2;" horiz-adv-x="465" 
d="M281 299h-99c18 90 32 166 48 246zM346 0h99l-171 817h-89l-165 -817h99l45 202h135zM261 959l79 -99h-70l-36 42l-37 -42h-73l84 99h53z" />
    <glyph glyph-name="Atilde" unicode="&#xc3;" horiz-adv-x="465" 
d="M182 299h99l-51 246c-16 -80 -30 -156 -48 -246zM445 0h-99l-47 202h-135l-45 -202h-99l165 817h89zM284 868c-26 0 -75 25 -98 25c-27 0 -38 -21 -50 -33l-34 46c20 23 41 49 71 49c36 0 63 -25 111 -25c3 0 21 -1 42 30l37 -49c-20 -28 -45 -43 -79 -43z" />
    <glyph glyph-name="Adieresis" unicode="&#xc4;" horiz-adv-x="465" 
d="M182 299h99l-51 246c-16 -80 -30 -156 -48 -246zM445 0h-99l-47 202h-135l-45 -202h-99l165 817h89zM214 949v-89h-76v89h76zM327 949v-89h-76v89h76z" />
    <glyph glyph-name="Aring" unicode="&#xc5;" horiz-adv-x="465" 
d="M182 299h99l-51 246c-16 -80 -30 -156 -48 -246zM445 0h-99l-47 202h-135l-45 -202h-99l165 817h89zM308 935c0 -43 -34 -76 -76 -76c-44 0 -76 32 -76 76c0 43 33 76 76 76c42 0 76 -34 76 -76zM260 935c0 15 -13 28 -28 28s-28 -13 -28 -28s13 -28 28 -28s28 13 28 28z
" />
    <glyph glyph-name="Egrave" unicode="&#xc8;" horiz-adv-x="389" 
d="M47 817h314v-96h-218v-276h191v-96h-191v-253h218v-96h-314v817zM86 1002h128l63 -142h-98z" />
    <glyph glyph-name="Eacute" unicode="&#xc9;" horiz-adv-x="389" 
d="M47 817h314v-96h-218v-276h191v-96h-191v-253h218v-96h-314v817zM220 1002h128l-93 -142h-98z" />
    <glyph glyph-name="Ecircumflex" unicode="&#xca;" horiz-adv-x="389" 
d="M361 817h-314v-817h314v96h-218v253h191v96h-191v276h218v96zM223 959l79 -99h-70l-36 42l-37 -42h-73l84 99h53z" />
    <glyph glyph-name="Edieresis" unicode="&#xcb;" horiz-adv-x="389" 
d="M47 817h314v-96h-218v-276h191v-96h-191v-253h218v-96h-314v817zM185 949v-89h-76v89h76zM298 949v-89h-76v89h76z" />
    <glyph glyph-name="Igrave" unicode="&#xcc;" horiz-adv-x="198" 
d="M145 817v-817h-96v817h96zM-46 1002h128l63 -142h-98z" />
    <glyph glyph-name="Iacute" unicode="&#xcd;" horiz-adv-x="198" 
d="M145 817v-817h-96v817h96zM113 1002h128l-93 -142h-98z" />
    <glyph glyph-name="Icircumflex" unicode="&#xce;" horiz-adv-x="198" 
d="M145 0v817h-96v-817h96zM128 960l79 -99h-70l-36 42l-37 -42h-73l84 99h53z" />
    <glyph glyph-name="Idieresis" unicode="&#xcf;" horiz-adv-x="198" 
d="M145 817v-817h-96v817h96zM81 950v-89h-76v89h76zM194 950v-89h-76v89h76z" />
    <glyph glyph-name="Ntilde" unicode="&#xd1;" horiz-adv-x="479" 
d="M147 538v-538h-96v817h104l176 -522v522h96v-817h-89zM291 869c-26 0 -75 25 -98 25c-27 0 -38 -21 -50 -33l-34 46c20 23 41 49 71 49c36 0 63 -25 111 -25c3 0 21 -1 42 30l37 -49c-20 -28 -45 -43 -79 -43z" />
    <glyph glyph-name="Ograve" unicode="&#xd2;" 
d="M247 88c56 0 105 30 105 71v493c0 41 -49 71 -105 71c-55 0 -105 -30 -105 -71v-493c0 -41 50 -71 105 -71zM448 652v-493c0 -94 -94 -165 -201 -165c-105 0 -201 71 -201 165v493c0 94 96 165 201 165c107 0 201 -71 201 -165zM100 1002h128l63 -142h-98z" />
    <glyph glyph-name="Oacute" unicode="&#xd3;" 
d="M247 88c56 0 105 30 105 71v493c0 41 -49 71 -105 71c-55 0 -105 -30 -105 -71v-493c0 -41 50 -71 105 -71zM448 652v-493c0 -94 -94 -165 -201 -165c-105 0 -201 71 -201 165v493c0 94 96 165 201 165c107 0 201 -71 201 -165zM261 1002h128l-93 -142h-98z" />
    <glyph glyph-name="Ocircumflex" unicode="&#xd4;" 
d="M247 88c-55 0 -105 30 -105 71v493c0 41 50 71 105 71c56 0 105 -30 105 -71v-493c0 -41 -49 -71 -105 -71zM448 159v493c0 94 -94 165 -201 165c-105 0 -201 -71 -201 -165v-493c0 -94 96 -165 201 -165c107 0 201 71 201 165zM276 959l79 -99h-70l-36 42l-37 -42h-73
l84 99h53z" />
    <glyph glyph-name="Otilde" unicode="&#xd5;" 
d="M247 88c56 0 105 30 105 71v493c0 41 -49 71 -105 71c-55 0 -105 -30 -105 -71v-493c0 -41 50 -71 105 -71zM448 652v-493c0 -94 -94 -165 -201 -165c-105 0 -201 71 -201 165v493c0 94 96 165 201 165c107 0 201 -71 201 -165zM299 868c-26 0 -75 25 -98 25
c-27 0 -38 -21 -50 -33l-34 46c20 23 41 49 71 49c36 0 63 -25 111 -25c3 0 21 -1 42 30l37 -49c-20 -28 -45 -43 -79 -43z" />
    <glyph glyph-name="Odieresis" unicode="&#xd6;" 
d="M247 88c56 0 105 30 105 71v493c0 41 -49 71 -105 71c-55 0 -105 -30 -105 -71v-493c0 -41 50 -71 105 -71zM448 652v-493c0 -94 -94 -165 -201 -165c-105 0 -201 71 -201 165v493c0 94 96 165 201 165c107 0 201 -71 201 -165zM229 949v-89h-76v89h76zM342 949v-89h-76
v89h76z" />
    <glyph glyph-name="Oslash" unicode="&#xd8;" 
d="M448 652v-493c0 -94 -94 -165 -201 -165c-57 0 -111 21 -148 54l-29 -61h-57l50 106c-11 20 -17 42 -17 66v493c0 94 96 165 201 165c51 0 99 -16 136 -44l26 56h58l-45 -96c16 -24 26 -51 26 -81zM247 88c56 0 105 30 105 71v427l-208 -442c10 -33 54 -56 103 -56z
M247 723c-55 0 -105 -30 -105 -71v-392l199 424c-18 24 -54 39 -94 39z" />
    <glyph glyph-name="oslash" unicode="&#xf8;" 
d="M448 652v-493c0 -94 -94 -165 -201 -165c-57 0 -111 21 -148 54l-29 -61h-57l50 106c-11 20 -17 42 -17 66v493c0 94 96 165 201 165c51 0 99 -16 136 -44l26 56h58l-45 -96c16 -24 26 -51 26 -81zM247 88c56 0 105 30 105 71v427l-208 -442c10 -33 54 -56 103 -56z
M247 723c-55 0 -105 -30 -105 -71v-392l199 424c-18 24 -54 39 -94 39z" />
    <glyph glyph-name="Ugrave" unicode="&#xd9;" horiz-adv-x="467" 
d="M232 91c46 0 86 34 86 75v651h97v-651c0 -94 -83 -171 -183 -171c-99 0 -181 77 -181 171v651h96v-651c0 -41 39 -75 85 -75zM91 1003h128l63 -142h-98z" />
    <glyph glyph-name="Uacute" unicode="&#xda;" horiz-adv-x="467" 
d="M232 91c46 0 86 34 86 75v651h97v-651c0 -94 -83 -171 -183 -171c-99 0 -181 77 -181 171v651h96v-651c0 -41 39 -75 85 -75zM247 1002h128l-93 -142h-98z" />
    <glyph glyph-name="Ucircumflex" unicode="&#xdb;" horiz-adv-x="467" 
d="M232 91c-46 0 -85 34 -85 75v651h-96v-651c0 -94 82 -171 181 -171c100 0 183 77 183 171v651h-97v-651c0 -41 -40 -75 -86 -75zM262 959l79 -99h-70l-36 42l-37 -42h-73l84 99h53z" />
    <glyph glyph-name="Udieresis" unicode="&#xdc;" horiz-adv-x="467" 
d="M232 91c46 0 86 34 86 75v651h97v-651c0 -94 -83 -171 -183 -171c-99 0 -181 77 -181 171v651h96v-651c0 -41 39 -75 85 -75zM215 949v-89h-76v89h76zM328 949v-89h-76v89h76z" />
    <glyph glyph-name="Yacute" unicode="&#xdd;" horiz-adv-x="506" 
d="M301 0h-96v394c-57 131 -129 293 -186 423h105l129 -293c42 97 89 201 129 293h105l-186 -423v-394zM268 1002h128l-93 -142h-98z" />
    <glyph glyph-name="Ydieresis" unicode="&#x178;" horiz-adv-x="506" 
d="M301 0h-96v394c-57 131 -129 293 -186 423h105l129 -293c42 97 89 201 129 293h105l-186 -423v-394zM234 950v-89h-76v89h76zM347 950v-89h-76v89h76z" />
    <glyph glyph-name="ydieresis" unicode="&#xff;" horiz-adv-x="506" 
d="M301 0h-96v394c-57 131 -129 293 -186 423h105l129 -293c42 97 89 201 129 293h105l-186 -423v-394zM234 950v-89h-76v89h76zM347 950v-89h-76v89h76z" />
    <glyph glyph-name="germandbls" unicode="&#xdf;" horiz-adv-x="861" 
d="M544 643v-120c0 -42 42 -68 90 -71c92 -7 181 -69 181 -165v-117c0 -96 -83 -174 -183 -174c-102 0 -184 78 -184 174v79h95v-79c0 -42 41 -78 89 -78s86 36 86 78v117c0 42 -41 71 -88 71c-97 0 -182 70 -182 165v120c0 96 82 174 184 174s183 -78 183 -174v-82h-96v82
c0 43 -40 78 -87 78c-49 0 -88 -36 -88 -78zM145 643v-120c0 -42 41 -68 89 -71c92 -7 181 -69 181 -165v-117c0 -96 -83 -174 -183 -174c-102 0 -184 78 -184 174v79h96v-79c0 -42 40 -78 88 -78s87 36 87 78v117c0 42 -42 71 -89 71c-97 0 -182 70 -182 165v120
c0 96 82 174 184 174s183 -78 183 -174v-82h-95v82c0 43 -41 78 -88 78c-49 0 -87 -36 -87 -78z" />
    <glyph glyph-name="Scaron" unicode="&#x160;" horiz-adv-x="451" 
d="M139 643c0 42 38 78 87 78c47 0 87 -35 87 -78v-82h96v82c0 96 -81 174 -183 174s-184 -78 -184 -174v-120c0 -95 85 -165 182 -165c47 0 88 -29 88 -71v-117c0 -42 -38 -78 -86 -78s-88 36 -88 78v79h-96v-79c0 -96 82 -174 184 -174c100 0 183 78 183 174v117
c0 96 -89 158 -181 165c-48 3 -89 29 -89 71v120zM333 959l-79 -99h-53l-84 99h73l37 -42l36 42h70z" />
    <glyph glyph-name="scaron" unicode="&#x161;" horiz-adv-x="457" 
d="M139 643c0 42 38 78 87 78c47 0 87 -35 87 -78v-82h96v82c0 96 -81 174 -183 174s-184 -78 -184 -174v-120c0 -95 85 -165 182 -165c47 0 88 -29 88 -71v-117c0 -42 -38 -78 -86 -78s-88 36 -88 78v79h-96v-79c0 -96 82 -174 184 -174c100 0 183 78 183 174v117
c0 96 -89 158 -181 165c-48 3 -89 29 -89 71v120zM336 959l-79 -99h-53l-84 99h73l37 -42l36 42h70z" />
    <glyph glyph-name="igrave" unicode="&#xec;" horiz-adv-x="198" 
d="M145 817v-817h-96v817h96zM-46 1002h128l63 -142h-98z" />
    <glyph glyph-name="iacute" unicode="&#xed;" horiz-adv-x="198" 
d="M145 817v-817h-96v817h96zM113 1002h128l-93 -142h-98z" />
    <glyph glyph-name="icircumflex" unicode="&#xee;" horiz-adv-x="198" 
d="M145 0v817h-96v-817h96zM128 960l79 -99h-70l-36 42l-37 -42h-73l84 99h53z" />
    <glyph glyph-name="idieresis" unicode="&#xef;" horiz-adv-x="198" 
d="M145 817v-817h-96v817h96zM81 950v-89h-76v89h76zM194 950v-89h-76v89h76z" />
    <glyph glyph-name="ntilde" unicode="&#xf1;" horiz-adv-x="479" 
d="M147 538v-538h-96v817h104l176 -522v522h96v-817h-89zM291 869c-26 0 -75 25 -98 25c-27 0 -38 -21 -50 -33l-34 46c20 23 41 49 71 49c36 0 63 -25 111 -25c3 0 21 -1 42 30l37 -49c-20 -28 -45 -43 -79 -43z" />
    <glyph glyph-name="ograve" unicode="&#xf2;" 
d="M247 88c56 0 105 30 105 71v493c0 41 -49 71 -105 71c-55 0 -105 -30 -105 -71v-493c0 -41 50 -71 105 -71zM448 652v-493c0 -94 -94 -165 -201 -165c-105 0 -201 71 -201 165v493c0 94 96 165 201 165c107 0 201 -71 201 -165zM100 1002h128l63 -142h-98z" />
    <glyph glyph-name="oacute" unicode="&#xf3;" 
d="M247 88c56 0 105 30 105 71v493c0 41 -49 71 -105 71c-55 0 -105 -30 -105 -71v-493c0 -41 50 -71 105 -71zM448 652v-493c0 -94 -94 -165 -201 -165c-105 0 -201 71 -201 165v493c0 94 96 165 201 165c107 0 201 -71 201 -165zM261 1002h128l-93 -142h-98z" />
    <glyph glyph-name="ocircumflex" unicode="&#xf4;" 
d="M247 88c-55 0 -105 30 -105 71v493c0 41 50 71 105 71c56 0 105 -30 105 -71v-493c0 -41 -49 -71 -105 -71zM448 159v493c0 94 -94 165 -201 165c-105 0 -201 -71 -201 -165v-493c0 -94 96 -165 201 -165c107 0 201 71 201 165zM276 959l79 -99h-70l-36 42l-37 -42h-73
l84 99h53z" />
    <glyph glyph-name="otilde" unicode="&#xf5;" 
d="M247 88c56 0 105 30 105 71v493c0 41 -49 71 -105 71c-55 0 -105 -30 -105 -71v-493c0 -41 50 -71 105 -71zM448 652v-493c0 -94 -94 -165 -201 -165c-105 0 -201 71 -201 165v493c0 94 96 165 201 165c107 0 201 -71 201 -165zM299 868c-26 0 -75 25 -98 25
c-27 0 -38 -21 -50 -33l-34 46c20 23 41 49 71 49c36 0 63 -25 111 -25c3 0 21 -1 42 30l37 -49c-20 -28 -45 -43 -79 -43z" />
    <glyph glyph-name="odieresis" unicode="&#xf6;" 
d="M247 88c56 0 105 30 105 71v493c0 41 -49 71 -105 71c-55 0 -105 -30 -105 -71v-493c0 -41 50 -71 105 -71zM448 652v-493c0 -94 -94 -165 -201 -165c-105 0 -201 71 -201 165v493c0 94 96 165 201 165c107 0 201 -71 201 -165zM229 949v-89h-76v89h76zM342 949v-89h-76
v89h76z" />
    <glyph glyph-name="ugrave" unicode="&#xf9;" horiz-adv-x="467" 
d="M232 91c46 0 86 34 86 75v651h97v-651c0 -94 -83 -171 -183 -171c-99 0 -181 77 -181 171v651h96v-651c0 -41 39 -75 85 -75zM91 1003h128l63 -142h-98z" />
    <glyph glyph-name="uacute" unicode="&#xfa;" horiz-adv-x="467" 
d="M232 91c46 0 86 34 86 75v651h97v-651c0 -94 -83 -171 -183 -171c-99 0 -181 77 -181 171v651h96v-651c0 -41 39 -75 85 -75zM247 1002h128l-93 -142h-98z" />
    <glyph glyph-name="ucircumflex" unicode="&#xfb;" horiz-adv-x="467" 
d="M232 91c-46 0 -85 34 -85 75v651h-96v-651c0 -94 82 -171 181 -171c100 0 183 77 183 171v651h-97v-651c0 -41 -40 -75 -86 -75zM262 959l79 -99h-70l-36 42l-37 -42h-73l84 99h53z" />
    <glyph glyph-name="udieresis" unicode="&#xfc;" horiz-adv-x="467" 
d="M232 91c46 0 86 34 86 75v651h97v-651c0 -94 -83 -171 -183 -171c-99 0 -181 77 -181 171v651h96v-651c0 -41 39 -75 85 -75zM215 949v-89h-76v89h76zM328 949v-89h-76v89h76z" />
    <glyph glyph-name="yacute" unicode="&#xfd;" horiz-adv-x="506" 
d="M301 0h-96v394c-57 131 -129 293 -186 423h105l129 -293c42 97 89 201 129 293h105l-186 -423v-394zM268 1002h128l-93 -142h-98z" />
    <glyph glyph-name="thorn" unicode="&#xfe;" horiz-adv-x="413" 
d="M231 530h-77v-276h77c42 0 77 34 77 76v123c0 42 -35 77 -77 77zM231 157h-77v-157h-97v817h97v-190h77c95 0 174 -79 174 -174v-123c0 -96 -78 -173 -174 -173z" />
    <glyph glyph-name="Zcaron" unicode="&#x17d;" horiz-adv-x="498" 
d="M456 96h-300l300 644v77h-415v-96h298l-298 -644v-77h415v96zM357 959l-79 -99h-53l-84 99h73l37 -42l36 42h70z" />
    <glyph glyph-name="zcaron" unicode="&#x17e;" horiz-adv-x="498" 
d="M456 96h-300l300 644v77h-415v-96h298l-298 -644v-77h415v96zM357 959l-79 -99h-53l-84 99h73l37 -42l36 42h70z" />
    <glyph glyph-name="quotesinglbase" unicode="&#x201a;" horiz-adv-x="213" 
d="M128 -56h-57l32 56h-49v124h106v-124z" />
    <glyph glyph-name="quotedblbase" unicode="&#x201e;" horiz-adv-x="349" 
d="M127 -56h-57l32 56h-49v124h106v-124zM264 -56h-57l32 56h-49v124h106v-124z" />
    <glyph glyph-name="egrave" unicode="&#xe8;" horiz-adv-x="404" 
d="M57 817h314v-96h-218v-196h191v-96h-191v-333h218v-96h-314v817zM91 1002h128l63 -142h-98z" />
    <glyph glyph-name="eacute" unicode="&#xe9;" horiz-adv-x="404" 
d="M57 817h314v-96h-218v-196h191v-96h-191v-333h218v-96h-314v817zM218 1003h128l-93 -142h-98z" />
    <glyph glyph-name="ecircumflex" unicode="&#xea;" horiz-adv-x="404" 
d="M371 817h-314v-817h314v96h-218v333h191v96h-191v196h218v96zM247 959l79 -99h-70l-36 42l-37 -42h-73l84 99h53z" />
    <glyph glyph-name="edieresis" unicode="&#xeb;" horiz-adv-x="404" 
d="M57 817h314v-96h-218v-196h191v-96h-191v-333h218v-96h-314v817zM198 949v-89h-76v89h76zM311 949v-89h-76v89h76z" />
    <glyph glyph-name="agrave" unicode="&#xe0;" horiz-adv-x="474" 
d="M177 219h119l-61 326c-19 -104 -36 -204 -58 -326zM450 0h-118l-27 122h-137l-25 -122h-118l165 817h89zM94 1002h128l63 -142h-98z" />
    <glyph glyph-name="aacute" unicode="&#xe1;" horiz-adv-x="474" 
d="M177 219h119l-61 326c-19 -104 -36 -204 -58 -326zM450 0h-118l-27 122h-137l-25 -122h-118l165 817h89zM251 1002h128l-93 -142h-98z" />
    <glyph glyph-name="acircumflex" unicode="&#xe2;" horiz-adv-x="474" 
d="M296 219h-119c22 122 39 222 58 326zM332 0h118l-171 817h-89l-165 -817h118l25 122h137zM263 959l79 -99h-70l-36 42l-37 -42h-73l84 99h53z" />
    <glyph glyph-name="atilde" unicode="&#xe3;" horiz-adv-x="474" 
d="M177 219h119l-61 326c-19 -104 -36 -204 -58 -326zM450 0h-118l-27 122h-137l-25 -122h-118l165 817h89zM288 868c-26 0 -75 25 -98 25c-27 0 -38 -21 -50 -33l-34 46c20 23 41 49 71 49c36 0 63 -25 111 -25c3 0 21 -1 42 30l37 -49c-20 -28 -45 -43 -79 -43z" />
    <glyph glyph-name="adieresis" unicode="&#xe4;" horiz-adv-x="474" 
d="M177 219h119l-61 326c-19 -104 -36 -204 -58 -326zM450 0h-118l-27 122h-137l-25 -122h-118l165 817h89zM218 949v-89h-76v89h76zM331 949v-89h-76v89h76z" />
    <glyph glyph-name="aring" unicode="&#xe5;" horiz-adv-x="474" 
d="M177 219h119l-61 326c-19 -104 -36 -204 -58 -326zM450 0h-118l-27 122h-137l-25 -122h-118l165 817h89zM313 936c0 -43 -34 -76 -76 -76c-44 0 -76 32 -76 76c0 43 33 76 76 76c42 0 76 -34 76 -76zM265 936c0 15 -13 28 -28 28s-28 -13 -28 -28s13 -28 28 -28
s28 13 28 28z" />
    <glyph glyph-name="Lslash" unicode="&#x141;" horiz-adv-x="341" 
d="M317 96v-96h-267v371l-68 -24v97l68 24v349h96v-315l100 36v-97l-100 -36v-309h171z" />
    <glyph glyph-name="lslash" unicode="&#x142;" horiz-adv-x="341" 
d="M317 96v-96h-267v371l-68 -24v97l68 24v349h96v-315l100 36v-97l-100 -36v-309h171z" />
    <glyph glyph-name="ellipsis" unicode="&#x2026;" horiz-adv-x="576" 
d="M142 112v-112h-96v112h96zM334 112v-112h-96v112h96zM526 112v-112h-96v112h96z" />
    <glyph glyph-name="perthousand" unicode="&#x2030;" horiz-adv-x="826" 
d="M89 -25l307 842h98l-307 -842h-98zM136 405c-56 0 -105 43 -105 101v180c0 57 50 101 105 101c54 0 103 -44 103 -101v-180c0 -58 -48 -101 -103 -101zM155 506v180c0 10 -11 18 -19 18c-12 0 -20 -8 -20 -18v-180c0 -10 9 -18 20 -18c10 0 19 8 19 18zM439 -25
c-57 0 -104 43 -104 101v181c0 57 46 101 104 101c55 0 103 -44 103 -101v-181c0 -57 -48 -101 -103 -101zM458 76v181c0 9 -9 17 -19 17c-11 0 -20 -7 -20 -17v-181c0 -10 8 -17 20 -17c11 0 19 8 19 17zM693 -25c-57 0 -104 43 -104 101v181c0 57 46 101 104 101
c55 0 103 -44 103 -101v-181c0 -57 -48 -101 -103 -101zM712 76v181c0 9 -9 17 -19 17c-11 0 -20 -7 -20 -17v-181c0 -10 8 -17 20 -17c11 0 19 8 19 17z" />
    <glyph glyph-name="exclamdown" unicode="&#xa1;" horiz-adv-x="184" 
d="M140 617v-96h-96v96h96zM140 454l4 -654h-104l4 654h96z" />
    </font>
</defs>
</svg>
